<svg xmlns="http://www.w3.org/2000/svg" width="23.751" height="23.751" viewBox="0 0 23.751 23.751">
  <g id="Group_27" data-name="Group 27" transform="translate(-132.232 -596.788)">
    <g id="Group_26" data-name="Group 26">
      <path id="Path_61" data-name="Path 61" d="M144.107,607.476a5.937,5.937,0,0,1,5.938,5.937v7.126H138.17v-7.126A5.937,5.937,0,0,1,144.107,607.476Zm-7.97,3.57a8.292,8.292,0,0,0-.333,1.959l-.009.408v7.126h-3.563V615.2a4.157,4.157,0,0,1,3.7-4.133l.2-.016Zm15.941,0a4.157,4.157,0,0,1,3.9,4.149v5.344H152.42v-7.126A8.291,8.291,0,0,0,152.078,611.046Zm-15.689-7.133a2.969,2.969,0,1,1-2.969,2.969A2.968,2.968,0,0,1,136.389,603.913Zm15.437,0a2.969,2.969,0,1,1-2.968,2.969A2.969,2.969,0,0,1,151.826,603.913Zm-7.719-7.125a4.75,4.75,0,1,1-4.75,4.75A4.751,4.751,0,0,1,144.107,596.788Z" fill="#031e3f"/>
    </g>
  </g>
</svg>
