<svg xmlns="http://www.w3.org/2000/svg" width="92.863" height="92.862" viewBox="0 0 92.863 92.862">
  <g id="Group_74" data-name="Group 74" transform="translate(-262.152 -2814.662)">
    <g id="Group_71" data-name="Group 71">
      <path id="Path_112" data-name="Path 112" d="M344.128,2907.524h-71.09a10.9,10.9,0,0,1-10.886-10.886v-48.874a10.9,10.9,0,0,1,10.886-10.887h71.09a10.9,10.9,0,0,1,10.886,10.887v48.874A10.9,10.9,0,0,1,344.128,2907.524Zm-71.09-66.647a6.9,6.9,0,0,0-6.886,6.887v48.874a6.894,6.894,0,0,0,6.886,6.886h71.09a6.894,6.894,0,0,0,6.886-6.886v-48.874a6.9,6.9,0,0,0-6.886-6.887Z" fill="#031e3f"/>
    </g>
    <g id="Group_72" data-name="Group 72">
      <path id="Path_113" data-name="Path 113" d="M326.355,2840.877a2,2,0,0,1-2-2v-13.329a6.894,6.894,0,0,0-6.886-6.886H299.7a6.894,6.894,0,0,0-6.886,6.886v13.329a2,2,0,0,1-4,0v-13.329a10.9,10.9,0,0,1,10.886-10.886h17.772a10.9,10.9,0,0,1,10.886,10.886v13.329A2,2,0,0,1,326.355,2840.877Z" fill="#031e3f"/>
    </g>
    <g id="Group_73" data-name="Group 73">
      <path id="Path_114" data-name="Path 114" d="M308.583,2871.8a10.841,10.841,0,0,1-2.134-.212l-42.689-8.538a2,2,0,1,1,.784-3.922l42.689,8.538a6.9,6.9,0,0,0,2.7,0l42.688-8.538a2,2,0,1,1,.784,3.922l-42.688,8.538A10.866,10.866,0,0,1,308.583,2871.8Z" fill="#031e3f"/>
    </g>
  </g>
</svg>
