<svg xmlns="http://www.w3.org/2000/svg" width="97.105" height="87.794" viewBox="0 0 97.105 87.794">
  <g id="Group_76" data-name="Group 76" transform="translate(-1127.345 -2821.729)">
    <g id="Group_75" data-name="Group 75">
      <path id="Path_115" data-name="Path 115" d="M1196.846,2909.523c-18.122,0-27.6-5.689-27.6-11.31v-34.921c.007-5.618,9.489-11.3,27.6-11.3s27.6,5.686,27.6,11.3v34.921C1224.45,2903.834,1214.968,2909.523,1196.846,2909.523Zm-23.6-22.688v11.378c0,2.98,9.2,7.31,23.6,7.31s23.6-4.33,23.6-7.31v-11.378c-4.38,3.024-12.315,5.231-23.6,5.231S1177.622,2889.859,1173.242,2886.835Zm0-6.079c0,2.98,9.2,7.31,23.6,7.31s23.6-4.33,23.6-7.31v-11.378c-4.38,3.024-12.315,5.231-23.6,5.231s-19.224-2.207-23.6-5.231Zm0-17.457c0,2.98,9.2,7.31,23.6,7.31s23.6-4.33,23.6-7.31-9.195-7.311-23.6-7.311S1173.242,2860.318,1173.242,2863.3Zm-18.293,36.914c-18.122,0-27.6-5.69-27.6-11.311v-55.87c.007-5.618,9.488-11.3,27.6-11.3s27.6,5.685,27.6,11.3v6.99a2,2,0,0,1-4,0v-.9c-4.38,3.025-12.316,5.232-23.6,5.232s-19.224-2.208-23.6-5.232v12.542c0,2.745,8.119,6.84,21.342,7.274q1.117.036,2.262.037a2,2,0,0,1,0,4q-1.211,0-2.394-.039c-8-.263-16.41-1.958-21.21-5.14v12.489c0,2.981,9.2,7.311,23.6,7.311a2,2,0,0,1,0,4c-11.289,0-19.224-2.207-23.6-5.232V2888.9c0,2.981,9.2,7.311,23.6,7.311a2,2,0,0,1,0,4Zm-23.6-67.174c0,2.981,9.2,7.311,23.6,7.311s23.6-4.33,23.6-7.311-9.195-7.31-23.6-7.31S1131.345,2830.059,1131.345,2833.039Z" fill="#031e3f"/>
    </g>
  </g>
</svg>
