<svg xmlns="http://www.w3.org/2000/svg" width="95.661" height="95.661" viewBox="0 0 95.661 95.661">
  <g id="Group_82" data-name="Group 82" transform="translate(-1559.862 -2813.14)">
    <g id="Group_77" data-name="Group 77">
      <path id="Path_116" data-name="Path 116" d="M1607.692,2908.8a47.831,47.831,0,1,1,47.831-47.831A47.884,47.884,0,0,1,1607.692,2908.8Zm0-92.051a44.22,44.22,0,1,0,44.221,44.22A44.27,44.27,0,0,0,1607.692,2816.75Z" fill="#031e3f"/>
    </g>
    <g id="Group_78" data-name="Group 78">
      <path id="Path_117" data-name="Path 117" d="M1607.714,2845.516a61.684,61.684,0,0,1-19.082-3,49.231,49.231,0,0,1-16.609-9.1l2.337-2.752a46.268,46.268,0,0,0,15.4,8.423,58.379,58.379,0,0,0,18.841,2.812,57.442,57.442,0,0,0,18.666-3.384,44.862,44.862,0,0,0,14.914-8.875l2.446,2.654a47.808,47.808,0,0,1-16.119,9.611,61.111,61.111,0,0,1-19.852,3.6C1608.343,2845.513,1608.028,2845.516,1607.714,2845.516Z" fill="#031e3f"/>
    </g>
    <g id="Group_79" data-name="Group 79">
      <path id="Path_118" data-name="Path 118" d="M1642.809,2892.9a44.236,44.236,0,0,0-15.292-9.377,57.394,57.394,0,0,0-19.388-3.481,58.514,58.514,0,0,0-19.478,3.2,44.941,44.941,0,0,0-15.544,9.156l-2.458-2.645a48.6,48.6,0,0,1,16.8-9.915,61.626,61.626,0,0,1,20.709-3.4,61.01,61.01,0,0,1,20.62,3.708,47.874,47.874,0,0,1,16.544,10.165Z" fill="#031e3f"/>
    </g>
    <g id="Group_80" data-name="Group 80">
      <rect id="Rectangle_33" data-name="Rectangle 33" width="3.61" height="92.051" transform="translate(1605.887 2814.945)" fill="#031e3f"/>
    </g>
    <g id="Group_81" data-name="Group 81">
      <rect id="Rectangle_34" data-name="Rectangle 34" width="92.051" height="3.61" transform="translate(1561.667 2859.165)" fill="#031e3f"/>
    </g>
  </g>
</svg>
